<svg width="2048" height="1024" xmlns="http://www.w3.org/2000/svg">

  <g>
    <title>Layer 1</title>
    <g id="svg_6">
      <rect x="-1" y="-1" width="2050" height="1026" id="canvas_background" fill="none"/>
    </g>
    <g id="svg_7">
      <rect width="100%" height="100%" fill="rgba(0,0,0,.12)" id="svg_1"/>
    </g>
    <g stroke="null" id="svg_2">
      <path stroke="null" d="m929.142853,448.761902m-31.619049,0a0.988095,0.988095 0 1 0 63.238098,0a0.988095,0.988095 0 1 0 -63.238098,0z" fill="#fff" id="svg_3"/>
      <path stroke="null" fill="#fff" d="m1187.375627,701.714294l-326.751253,0c-31.951049,0 -57.957717,-26.006668 -57.957717,-57.957717l0,-263.513155c0,-31.951049 26.006668,-57.957717 57.957717,-57.957717l326.751253,0c31.951049,0 57.957717,26.006668 57.957717,57.957717l0,263.513155c0,31.951049 -26.006668,57.957717 -57.957717,57.957717zm-326.751253,-347.80954c-14.513144,0 -26.338668,11.825524 -26.338668,26.338668l0,263.513155c0,14.528953 11.825524,26.338668 26.338668,26.338668l326.751253,0c14.528953,0 26.338668,-11.809715 26.338668,-26.338668l0,-263.513155c0,-14.513144 -11.809715,-26.338668 -26.338668,-26.338668l-326.751253,0z" id="svg_4"/>
      <path stroke="null" fill="#fff" d="m881.714279,638.966292c-1.549333,0 -3.130286,-0.237143 -4.695429,-0.727238c-8.331619,-2.592762 -12.995429,-11.430286 -10.402667,-19.761906c1.169905,-3.762667 29.721906,-92.311814 90.493718,-90.730861c17.29562,0.426857 31.777144,4.790286 45.784383,9.011429c17.991239,5.406857 33.547811,10.070667 54.163431,6.782286c10.102286,-1.628381 14.276001,-11.778096 21.406096,-34.57543c9.406667,-30.053906 23.61943,-75.458861 86.288385,-75.458861c8.742667,0 15.809525,7.082667 15.809525,15.809525s-7.066857,15.809525 -15.809525,15.809525c-37.531811,0 -45.784383,20.252001 -56.123812,53.293907c-7.161715,22.923811 -16.109906,51.460002 -46.574859,56.329336c-27.808954,4.426667 -49.294098,-2.039429 -68.281336,-7.715048c-12.552762,-3.778476 -24.425715,-7.351429 -37.484383,-7.667619c-0.237143,-0.01581 -0.474286,-0.01581 -0.711429,-0.01581c-30.638859,0 -52.803812,49.341526 -58.795622,68.50267c-2.086857,6.766477 -8.331619,11.114096 -15.066477,11.114096z" id="svg_5"/>
    </g>
  </g>
</svg>
