<svg width="1024" height="1024" xmlns="http://www.w3.org/2000/svg">
  <g>
    <rect x="-1" y="-1" width="1026" height="1026" id="canvas_background" fill="none"/>
  </g>
  <g>
    <rect class="rectangle" width="100%" height="100%" fill="rgba(0,0,0,.12)" id="svg_1"/>
    <path stroke="null" d="m677.687819,429.172313c0,-92.030766 -73.624613,-165.655371 -165.655379,-165.655371s-165.655379,73.624605 -165.655379,165.655371c0,62.58092 33.131081,115.958762 84.668307,143.567992c-69.943379,27.60923 -123.32123,88.349532 -138.046149,165.655379c-1.840617,9.203077 3.681234,20.24677 14.724927,22.087387l3.681226,0c9.203077,0 16.565536,-5.521851 18.406153,-14.724927c16.565536,-86.508916 92.030766,-149.089835 180.380299,-150.930452l3.681234,0c90.190149,0 163.814762,-73.624613 163.814762,-165.655379zm-294.498452,0c0,-71.783996 57.059077,-128.843073 128.843073,-128.843073s128.843073,57.059077 128.843073,128.843073c0,69.943387 -57.059077,127.002456 -127.002456,128.843073l-5.521851,0c-69.943379,-1.840617 -125.161839,-58.899686 -125.161839,-128.843073zm250.323686,167.495996c-9.203077,-5.521851 -20.24677,-3.681234 -25.768621,5.521843c-5.521843,9.203077 -3.681226,20.24677 5.521851,25.768613c42.334149,29.449847 71.783996,69.943387 80.987073,117.799379c1.840617,9.203077 9.203077,14.724927 18.406153,14.724927l3.681226,0c9.203077,-1.840617 16.565544,-11.043694 14.724927,-22.087387c-11.043694,-57.059077 -46.015383,-106.755686 -97.552609,-141.727375z" fill="#fff" id="svg_2"/>
  </g>
</svg>
